<svg width="171" height="59" viewBox="0 0 171 59" fill="none" xmlns="http://www.w3.org/2000/svg">
<path d="M22.5285 26.7541H9.64034L8.09376 30.2973C7.57823 31.4784 7.32047 32.4541 7.32047 33.2243C7.32047 34.2514 7.73289 34.9703 8.55773 35.4838C9.02171 35.7919 10.259 35.9973 12.1149 36.1514V37.127H0V36.1514C1.28882 35.9459 2.37142 35.4324 3.24781 34.5081C4.07266 33.6351 5.15526 31.7865 6.39252 29.0135L19.4353 0H19.9509L33.0968 29.8351C34.334 32.6595 35.3651 34.4568 36.1899 35.1757C36.8086 35.7405 37.685 36.0486 38.7676 36.1514V37.127H21.1366V36.1514H21.8583C23.3018 36.1514 24.2813 35.9459 24.8484 35.5865C25.2608 35.2784 25.4154 34.8676 25.4154 34.3541C25.4154 34.0459 25.3639 33.6865 25.2608 33.3784C25.2092 33.2243 24.9515 32.5568 24.4359 31.3757L22.5285 26.7541ZM21.6005 24.8027L16.136 12.273L10.5683 24.8027H21.6005Z" fill="black"/>
<path d="M70.0598 24.7516L79.9579 0.770508H94.8051V1.74618H93.6193C92.5367 1.74618 91.6604 1.95159 91.0417 2.31105C90.5777 2.56781 90.2169 2.97862 89.9591 3.59483C89.7529 4.00564 89.6498 5.13537 89.6498 6.93267V30.9138C89.6498 32.7624 89.7529 33.9435 89.9591 34.4056C90.1653 34.8678 90.5777 35.2786 91.1964 35.6381C91.815 35.9975 92.6398 36.1516 93.6709 36.1516H94.8566V37.1273H75.7821V36.1516H76.9679C78.0505 36.1516 78.9269 35.9462 79.5455 35.5867C80.0095 35.33 80.3703 34.9192 80.6281 34.3029C80.8343 33.8921 80.9374 32.7624 80.9374 30.9138V3.95429L66.9151 37.1273H66.2449L52.0164 4.21105V29.784C52.0164 31.5813 52.0679 32.6597 52.1711 33.0705C52.4288 33.9435 52.8928 34.7137 53.7176 35.2786C54.4909 35.8435 55.7282 36.1002 57.3779 36.1002V37.0759H44.8506V36.1002H45.2115C46.0363 36.1002 46.758 35.9975 47.4798 35.6894C48.2015 35.3813 48.717 35.0219 49.0779 34.5597C49.4388 34.0975 49.6965 33.43 49.9027 32.6083C49.9543 32.4029 49.9543 31.4786 49.9543 29.8867V6.93267C49.9543 5.08402 49.8512 3.95429 49.645 3.49213C49.4903 3.02997 49.0779 2.61916 48.4593 2.2597C47.8406 1.90024 47.0158 1.74618 45.9847 1.74618H44.8506V0.770508H59.8008L70.0598 24.7516Z" fill="black"/>
<path d="M100.888 0.770508H119.757V1.74618H118.829C117.385 1.74618 116.457 1.90024 115.89 2.20835C115.375 2.51645 114.962 2.92726 114.756 3.44078C114.55 3.95429 114.395 5.23808 114.395 7.34348V25.1624C114.395 28.3975 114.653 30.5543 115.117 31.6327C115.632 32.711 116.406 33.584 117.54 34.2516C118.674 34.9705 120.117 35.2786 121.819 35.2786C123.778 35.2786 125.479 34.8165 126.871 33.9435C128.263 33.0705 129.294 31.8381 130.015 30.2975C130.686 28.757 131.047 26.0354 131.047 22.184V7.29213C131.047 5.64889 130.892 4.51916 130.531 3.80024C130.17 3.08132 129.758 2.61916 129.242 2.3624C128.417 1.95159 127.283 1.74618 125.84 1.74618V0.770508H138.47V1.74618H137.697C136.666 1.74618 135.841 1.95159 135.119 2.3624C134.449 2.77321 133.933 3.38943 133.624 4.21105C133.366 4.77591 133.263 5.80294 133.263 7.29213V21.1056C133.263 25.3678 133.006 28.4489 132.438 30.3489C131.871 32.2489 130.479 33.9948 128.314 35.5867C126.149 37.1786 123.159 38.0002 119.344 38.0002C116.199 38.0002 113.725 37.5894 112.024 36.7165C109.652 35.5867 108.003 34.0975 107.023 32.3002C106.044 30.5029 105.58 28.0894 105.58 25.0597V7.29213C105.58 5.18672 105.476 3.90294 105.219 3.38943C104.961 2.87591 104.6 2.4651 103.981 2.15699C103.414 1.84889 102.332 1.69483 100.785 1.74618V0.770508H100.888Z" fill="black"/>
<path d="M151.564 1.74618V0.770508H171V1.74618H169.814C168.731 1.74618 167.855 1.95159 167.236 2.31105C166.772 2.56781 166.411 2.97862 166.154 3.59483C165.947 4.00564 165.844 5.13537 165.844 6.98402V24.8029C165.844 28.2948 165.483 30.811 164.813 32.4029C164.092 33.9948 162.854 35.33 161.101 36.357C159.297 37.4354 157.183 37.9489 154.657 37.9489C151.564 37.9489 149.09 37.1273 147.234 35.5354C145.378 33.9435 144.398 32.1462 144.398 30.1948C144.398 28.9624 144.759 27.9354 145.533 27.1651C146.306 26.3948 147.234 25.984 148.368 25.984C149.451 25.984 150.379 26.3435 151.152 27.011C151.874 27.73 152.286 28.5516 152.286 29.5786C152.286 30.0921 152.234 30.5029 152.08 30.9138C152.028 31.0678 151.719 31.53 151.255 32.2489C150.739 32.9678 150.533 33.4813 150.533 33.7894C150.533 34.2516 150.791 34.6624 151.255 35.0219C151.925 35.5354 152.802 35.7921 153.936 35.7921C154.709 35.7921 155.328 35.5867 155.843 35.2273C156.359 34.8165 156.72 34.2002 156.926 33.3786C157.132 32.557 157.235 30.2462 157.235 26.4462V6.98402C157.235 5.13537 157.132 3.95429 156.926 3.49213C156.72 3.02997 156.307 2.61916 155.688 2.2597C155.07 1.90024 154.297 1.74618 153.265 1.74618H151.564Z" fill="black"/>
<path d="M64.0254 55.4365L64.251 55.4844L63.458 58H56.2803V57.7471H56.6289C57.0208 57.7471 57.3011 57.6195 57.4697 57.3643C57.5654 57.2184 57.6133 56.8812 57.6133 56.3525V50.3711C57.6133 49.7923 57.5495 49.43 57.4219 49.2842C57.2441 49.0837 56.9798 48.9834 56.6289 48.9834H56.2803V48.7305H60.4775V48.9834C59.9854 48.9788 59.639 49.0244 59.4385 49.1201C59.2425 49.2158 59.1081 49.3366 59.0352 49.4824C58.9622 49.6283 58.9258 49.9769 58.9258 50.5283V56.3525C58.9258 56.7308 58.9622 56.9906 59.0352 57.1318C59.0898 57.2275 59.1742 57.2982 59.2881 57.3438C59.402 57.3893 59.7575 57.4121 60.3545 57.4121H61.0312C61.7422 57.4121 62.2412 57.3597 62.5283 57.2549C62.8154 57.1501 63.0775 56.9655 63.3145 56.7012C63.5514 56.4323 63.7884 56.0107 64.0254 55.4365ZM76.4239 54.8965H72.835L72.2061 56.3594C72.0511 56.7194 71.9737 56.9883 71.9737 57.166C71.9737 57.3073 72.0398 57.4326 72.1719 57.542C72.3086 57.6468 72.6003 57.7152 73.0469 57.7471V58H70.128V57.7471C70.5153 57.6787 70.766 57.5898 70.8799 57.4805C71.1123 57.2617 71.3698 56.8174 71.6524 56.1475L74.9131 48.5186H75.1524L78.3789 56.2295C78.6387 56.8493 78.8734 57.2526 79.083 57.4395C79.2972 57.6217 79.5935 57.7243 79.9717 57.7471V58H76.3145V57.7471C76.6836 57.7288 76.932 57.6673 77.0596 57.5625C77.1918 57.4577 77.2579 57.3301 77.2579 57.1797C77.2579 56.9792 77.1667 56.6624 76.9844 56.2295L76.4239 54.8965ZM76.2325 54.3906L74.6602 50.6445L73.0469 54.3906H76.2325ZM94.1886 48.5186L94.4278 51.4443H94.1886C93.947 50.7152 93.6348 50.166 93.252 49.7969C92.7006 49.2637 91.9919 48.9971 91.1261 48.9971C89.9457 48.9971 89.0479 49.4642 88.4327 50.3984C87.9177 51.1868 87.6602 52.1257 87.6602 53.2148C87.6602 54.099 87.8311 54.9056 88.1729 55.6348C88.5147 56.3639 88.9613 56.8994 89.5128 57.2412C90.0688 57.5785 90.6384 57.7471 91.2218 57.7471C91.5636 57.7471 91.894 57.7038 92.213 57.6172C92.532 57.5306 92.8396 57.403 93.1358 57.2344V54.5547C93.1358 54.0898 93.0994 53.7868 93.0264 53.6455C92.9581 53.4997 92.8487 53.3903 92.6983 53.3174C92.5525 53.2399 92.2927 53.2012 91.919 53.2012V52.9414H95.5079V53.2012H95.337C94.9815 53.2012 94.7377 53.3197 94.6055 53.5566C94.5144 53.7253 94.4688 54.0579 94.4688 54.5547V57.3916C93.9447 57.6742 93.4275 57.8815 92.9171 58.0137C92.4067 58.1458 91.8393 58.2119 91.2149 58.2119C89.4239 58.2119 88.0636 57.6377 87.1339 56.4893C86.4366 55.6279 86.088 54.6344 86.088 53.5088C86.088 52.693 86.2839 51.9115 86.6759 51.1641C87.1407 50.2754 87.7787 49.5918 88.5899 49.1133C89.269 48.7168 90.071 48.5186 90.9962 48.5186C91.3334 48.5186 91.6388 48.5459 91.9122 48.6006C92.1902 48.6553 92.5821 48.776 93.088 48.9629C93.3432 49.0586 93.5141 49.1064 93.6007 49.1064C93.6873 49.1064 93.7602 49.0677 93.8194 48.9902C93.8832 48.9082 93.922 48.751 93.9356 48.5186H94.1886ZM106.293 48.5186C107.496 48.5186 108.538 48.9766 109.417 49.8926C110.301 50.804 110.743 51.9434 110.743 53.3105C110.743 54.7188 110.299 55.8877 109.41 56.8174C108.522 57.7471 107.446 58.2119 106.184 58.2119C104.908 58.2119 103.834 57.7585 102.964 56.8516C102.098 55.9447 101.665 54.7712 101.665 53.3311C101.665 51.859 102.166 50.6582 103.169 49.7285C104.04 48.9219 105.081 48.5186 106.293 48.5186ZM106.163 49.0176C105.334 49.0176 104.668 49.3252 104.167 49.9404C103.543 50.7061 103.231 51.8271 103.231 53.3037C103.231 54.8167 103.554 55.9811 104.201 56.7969C104.698 57.4167 105.354 57.7266 106.17 57.7266C107.04 57.7266 107.758 57.387 108.323 56.708C108.893 56.029 109.178 54.958 109.178 53.4951C109.178 51.9092 108.866 50.7266 108.241 49.9473C107.74 49.3275 107.047 49.0176 106.163 49.0176ZM123.169 48.5186V51.7246H122.916C122.834 51.1094 122.686 50.6195 122.472 50.2549C122.262 49.8903 121.961 49.6009 121.569 49.3867C121.178 49.1725 120.772 49.0654 120.353 49.0654C119.879 49.0654 119.487 49.2113 119.177 49.5029C118.867 49.79 118.712 50.1182 118.712 50.4873C118.712 50.7699 118.81 51.0273 119.006 51.2598C119.289 51.6016 119.961 52.0573 121.023 52.627C121.889 53.0918 122.479 53.4495 122.793 53.7002C123.112 53.9463 123.356 54.238 123.525 54.5752C123.698 54.9124 123.784 55.2656 123.784 55.6348C123.784 56.3366 123.511 56.9427 122.964 57.4531C122.422 57.959 121.722 58.2119 120.865 58.2119C120.597 58.2119 120.344 58.1914 120.107 58.1504C119.965 58.1276 119.671 58.0456 119.225 57.9043C118.783 57.7585 118.502 57.6855 118.384 57.6855C118.27 57.6855 118.179 57.7197 118.111 57.7881C118.047 57.8564 117.999 57.9977 117.967 58.2119H117.714V55.0332H117.967C118.085 55.6986 118.245 56.1976 118.445 56.5303C118.646 56.8584 118.951 57.1318 119.361 57.3506C119.776 57.5693 120.23 57.6787 120.722 57.6787C121.291 57.6787 121.74 57.5283 122.069 57.2275C122.401 56.9268 122.568 56.5713 122.568 56.1611C122.568 55.9333 122.504 55.7031 122.376 55.4707C122.253 55.2383 122.059 55.0218 121.795 54.8213C121.617 54.6846 121.132 54.3952 120.339 53.9531C119.546 53.5065 118.981 53.151 118.644 52.8867C118.311 52.6224 118.058 52.3307 117.885 52.0117C117.712 51.6927 117.625 51.3418 117.625 50.959C117.625 50.2936 117.88 49.7217 118.391 49.2432C118.901 48.7601 119.551 48.5186 120.339 48.5186C120.831 48.5186 121.353 48.6393 121.904 48.8809C122.16 48.9948 122.34 49.0518 122.444 49.0518C122.563 49.0518 122.659 49.0176 122.732 48.9492C122.809 48.8763 122.871 48.7327 122.916 48.5186H123.169Z" fill="black"/>
</svg>
